<?xml version="1.0" encoding="UTF-8" standalone="no"?>
<svg
   xmlns:dc="http://purl.org/dc/elements/1.1/"
   xmlns:cc="http://creativecommons.org/ns#"
   xmlns:rdf="http://www.w3.org/1999/02/22-rdf-syntax-ns#"
   xmlns:svg="http://www.w3.org/2000/svg"
   xmlns="http://www.w3.org/2000/svg"
   xmlns:sodipodi="http://sodipodi.sourceforge.net/DTD/sodipodi-0.dtd"
   xmlns:inkscape="http://www.inkscape.org/namespaces/inkscape"
   version="1.1"
   id="svg2"
   xml:space="preserve"
   width="465.1326"
   height="400.42474"
   viewBox="0 0 465.1326 400.42475"
   sodipodi:docname="fondo.svg"
   inkscape:version="1.0 (4035a4fb49, 2020-05-01)"><metadata
     id="metadata8"><rdf:RDF><cc:Work
         rdf:about=""><dc:format>image/svg+xml</dc:format><dc:type
           rdf:resource="http://purl.org/dc/dcmitype/StillImage" /><dc:title></dc:title></cc:Work></rdf:RDF></metadata><defs
     id="defs6"><clipPath
       clipPathUnits="userSpaceOnUse"
       id="clipPath20"><path
         d="M 0,500 H 500 V 0 H 0 Z"
         id="path18" /></clipPath><clipPath
       clipPathUnits="userSpaceOnUse"
       id="clipPath400"><path
         d="M 0,500 H 500 V 0 H 0 Z"
         id="path398" /></clipPath></defs><sodipodi:namedview
     fit-margin-bottom="0"
     fit-margin-right="0"
     fit-margin-left="0"
     fit-margin-top="0"
     inkscape:document-rotation="0"
     pagecolor="#ffffff"
     bordercolor="#666666"
     borderopacity="1"
     objecttolerance="10"
     gridtolerance="10"
     guidetolerance="10"
     inkscape:pageopacity="0"
     inkscape:pageshadow="2"
     inkscape:window-width="1920"
     inkscape:window-height="1017"
     id="namedview4"
     showgrid="false"
     inkscape:zoom="0.65099998"
     inkscape:cx="-438.22071"
     inkscape:cy="-24.323947"
     inkscape:window-x="-8"
     inkscape:window-y="-8"
     inkscape:window-maximized="1"
     inkscape:current-layer="g10" /><g
     id="g10"
     inkscape:groupmode="layer"
     inkscape:label="2474175"
     transform="matrix(1.3333333,0,0,-1.3333333,-114.88742,519.17825)"><g
       style="fill:#9955ff"
       id="g22"
       transform="translate(423.17041,185.22498)"><path
         d="m 0,0 c -14.359,-24.02 -29.119,-62.56 -80.6,-82.79 -1.08,-0.42 -2.17,-0.829 -3.28,-1.23 -4.84,-1.78 -9.989,-3.4 -15.489,-4.839 h -0.011 c -0.96,-0.241 -1.95,-0.5 -2.939,-0.741 -0.05,-0.009 -0.09,-0.019 -0.141,-0.03 h -0.01 c -0.009,0 -0.019,0 -0.03,-0.01 -1.359,-0.33 -2.739,-0.65 -4.14,-0.95 -7.28,-1.599 -15.11,-2.889 -23.559,-3.819 -3.801,-0.431 -7.731,-0.78 -11.79,-1.051 -0.941,-0.06 -1.901,-0.12 -2.861,-0.18 -3.15,-0.179 -6.389,-0.309 -9.7,-0.4 -1.05,-0.029 -2.109,-0.05 -3.17,-0.069 -9.33,-0.161 -19.27,0.059 -29.87,0.689 -17.119,-0.46 -34.28,2.25 -50.5,7.761 -0.32,0.109 -0.63,0.22 -0.95,0.329 -0.98,0.341 -1.96,0.69 -2.93,1.051 -18.79,6.96 -36.179,17.71 -50.6,31.63 -27.73,26.78 -44.119,64.95 -44.43,103.5 -0.1,12.129 1.34,24.33 5.07,35.869 5.84,18.12 17.04,33.97 28.21,49.39 12.551,17.341 25.62,34.9 43.27,47.02 18.35,12.62 40.56,18.531 62.66,21.23 33.01,4.02 66.83,1.281 98.761,-8.009 13.359,-3.891 26.529,-8.98 37.969,-16.911 12.79,-8.859 22.98,-20.96 32.35,-33.379 C -13.029,123.28 1.04,100.72 7.811,75.59 14.591,50.46 13.36,22.33 0,0"
         style="fill:#9955ff;fill-opacity:1;fill-rule:nonzero;stroke:none"
         id="path24" /></g><g
       id="g26"
       transform="translate(294.24461,231.40768)"><path
         d="m 0,0 c -0.026,-15.804 8.546,-26.719 19.936,-36.674 12.704,-11.103 22.181,-23.758 30.344,-38.479 0.366,-0.659 1.515,-0.213 1.243,0.523 -4.949,13.403 -13.766,25.247 -24.145,34.986 -5.35,5.02 -11.377,9.399 -16.065,15.09 C 5.598,-17.613 2.509,-8.918 1.875,0 1.79,1.19 0.002,1.221 0,0"
         style="fill:#fffcf0;fill-opacity:1;fill-rule:nonzero;stroke:none"
         id="path28" /></g><g
       id="g30"
       transform="translate(342.57081,102.43498)"><path
         d="m 0,0 c -1.08,-0.42 -2.17,-0.829 -3.28,-1.229 6.3,16.83 7.52,35.709 0.03,51.74 -1.45,3.109 -3.15,6.029 -5.03,8.84 l -0.01,0.009 c -4.96,7.401 -11.15,13.941 -17.22,20.571 -0.89,0.979 -1.79,1.96 -2.68,2.95 -0.61,0.68 -1.22,1.369 -1.83,2.059 -0.83,0.951 -1.66,1.911 -2.47,2.88 -4.21,5.01 -8.07,10.281 -11.06,16.18 -0.3,0.591 0.55,1.091 0.89,0.521 3.24,-5.521 7.22,-10.571 11.48,-15.43 0.34,-0.391 0.69,-0.78 1.03,-1.17 0.9,-1.021 1.82,-2.03 2.74,-3.03 0.7,-0.771 1.41,-1.54 2.13,-2.311 3.5,-3.779 7.04,-7.519 10.38,-11.39 0.01,0 0.01,-0.009 0.01,-0.009 C -8.35,63.62 -2.56,55.601 0.74,45.99 5.58,31.881 4.88,15.16 0,0"
         style="fill:#fffcf0;fill-opacity:1;fill-rule:nonzero;stroke:none"
         id="path32" /></g><g
       id="g34"
       transform="translate(336.49071,132.81588)"><path
         d="m 0,0 c -0.01,-5.49 -0.75,-10.91 -3.02,-16.16 -2.11,-4.851 -5.05,-9.361 -7.9,-13.79 -0.86,-1.351 -1.72,-2.721 -2.62,-4.061 -0.72,-1.09 -1.46,-2.17 -2.24,-3.21 h -0.01 c -0.01,0 -0.02,0 -0.03,-0.009 -1.36,-0.331 -2.74,-0.651 -4.14,-0.951 0.021,0.04 0.04,0.08 0.07,0.12 1.53,2.71 3.26,5.311 5.03,7.89 3.06,4.45 6.22,8.851 8.631,13.691 3.129,6.29 4.079,12.95 4.199,19.74 0.06,3.399 -0.09,6.83 -0.28,10.26 -0.05,0.87 1.24,0.83 1.331,0 C -0.46,9 0.01,4.479 0,0"
         style="fill:#fffcf0;fill-opacity:1;fill-rule:nonzero;stroke:none"
         id="path36" /></g><g
       id="g38"
       transform="translate(338.23091,128.15568)"><path
         d="M 0,0 C -0.4,1.609 -0.98,3.18 -1.74,4.66 -2.32,5.81 -3,6.899 -3.771,7.92 -4.08,8.33 -4.4,8.729 -4.74,9.12 -6.11,-3 -10.25,-14.8 -16.73,-25.13 c -0.21,-0.35 -0.43,-0.7 -0.661,-1.051 l -26.449,-8.139 -9.931,-3.06 -3.279,-1.011 c -0.94,-0.059 -1.9,-0.12 -2.86,-0.179 l -0.26,0.86 -2,6.46 -0.94,3.029 -1.8,5.83 -0.02,0.071 -0.211,0.66 v 0.01 l -0.469,1.53 v 0.01 l -8.59,27.79 -9.46,30.599 -1.3,4.181 v 0.01 l -10.1,32.69 v 0.01 l -3,9.689 -0.88,2.83 -0.68,2.201 -1.06,3.44 10.03,10.029 1.66,1.661 2.07,2.07 1.23,1.229 3.93,3.931 1.02,1.02 3.56,3.56 1.86,1.86 1.02,1.02 0.87,0.86 0.01,0.01 0.13,0.14 1.399,1.4 8.441,8.44 2.97,2.97 1.209,1.21 4.891,4.89 7.52,7.52 1.27,-12.03 1.5,-14.29 v -0.01 l 0.1,-0.9 0.46,-4.391 0.24,-2.29 0.06,-0.569 0.36,-3.37 0.15,-1.481 0.43,-4.069 0.29,-2.71 1.38,-13.13 c 0.19,-0.73 0.41,-1.45 0.67,-2.16 0,-0.011 0.01,-0.03 0.01,-0.04 2.36,-6.851 7.23,-12.65 11.99,-18.2 2.07,-2.41 4.139,-4.83 6.179,-7.271 0.21,-0.25 0.42,-0.5 0.621,-0.75 0,0 0.02,-0.01 0.009,-0.019 3.771,-4.51 7.381,-9.13 10.58,-14 0.011,0 0.011,-0.01 0.011,-0.01 1.84,-2.78 3.54,-5.641 5.06,-8.61 0.54,-1.05 1.05,-2.13 1.54,-3.21 l 0.01,-0.01 C 0.79,23.069 2.97,11.14 0,0"
         style="fill:#fffcf0;fill-opacity:1;fill-rule:nonzero;stroke:none"
         id="path40" /></g><g
       style="fill:#330080"
       id="g42"
       transform="translate(269.70071,332.44228)"><path
         d="M 0,0 C 4.537,1.205 8.878,1.543 13.53,1.051 13.408,1.955 13.286,2.859 13.163,3.763 4.215,1.412 -4.699,-1.049 -13.613,-3.528 c -2.119,-0.589 -1.211,-3.919 0.91,-3.3 8.883,2.596 17.756,5.206 26.6,7.928 C 15.45,1.578 15.045,3.664 13.53,3.812 8.654,4.288 4.009,3.846 -0.704,2.554 -2.347,2.104 -1.652,-0.439 0,0"
         style="fill:#330080;fill-opacity:1;fill-rule:nonzero;stroke:none"
         id="path44" /></g><g
       style="fill:#b380ff"
       id="g46"
       transform="translate(260.89551,330.01748)"><path
         d="m 0,0 c -6.196,1.266 -12.542,2.612 -18.831,3.291 0.088,-0.648 0.176,-1.295 0.263,-1.942 5.503,0.938 10.391,-1.148 15.063,-3.736 1.113,-0.616 2.128,0.791 1.322,1.714 -3.678,4.21 -5.97,8.985 -7.037,14.461 l -2.001,-0.844 C -8.477,7.491 -5.809,2 -3.122,-3.481 c 0.589,-1.202 2.641,-0.359 2.182,0.919 -2.603,7.243 -5.306,14.793 -2.026,22.315 -0.575,-0.074 -1.15,-0.148 -1.725,-0.222 2.24,-2.648 1.141,-7.971 1.143,-11.251 10e-4,-3.681 0.003,-7.362 0.005,-11.042 0.001,-1.22 1.999,-1.581 2.203,-0.298 1.392,8.756 2.919,17.56 8.895,24.492 -0.559,0.432 -1.12,0.864 -1.68,1.297 C 2.156,14.588 -1.278,6.464 -3.991,-2.08 c -0.443,-1.395 1.654,-1.916 2.159,-0.595 2.408,6.293 7.12,10.978 13.415,13.381 l -1.506,1.147 C 10.158,8.981 5.533,6.365 3.621,4.788 1.103,2.711 -1.416,0.635 -3.934,-1.442 -5.024,-2.341 -3.544,-4.293 -2.407,-3.42 1.048,-0.765 4.643,1.072 8.817,2.379 10.5,2.906 9.764,5.583 8.088,5.023 3.657,3.544 -0.25,1.432 -3.934,-1.442 l 1.782,-1.781 c 3.751,3.138 7.554,6.224 11.26,9.416 1.934,1.667 3.439,3.025 3.348,5.66 C 12.431,12.554 11.704,13.293 10.95,13 3.846,10.234 -1.314,5.069 -3.991,-2.08 c 0.72,-0.198 1.44,-0.397 2.159,-0.595 2.576,8.318 5.615,16.549 9.555,24.324 0.521,1.027 -0.832,2.254 -1.681,1.296 -6.299,-7.113 -8.135,-16.274 -9.545,-25.409 0.734,-0.099 1.469,-0.199 2.203,-0.298 -0.024,5.214 -0.049,10.429 -0.073,15.643 -0.014,3.037 0.229,5.771 -1.765,8.203 -0.421,0.515 -1.448,0.386 -1.725,-0.222 -3.673,-8.082 -1.363,-16.145 1.621,-24.058 0.727,0.306 1.454,0.613 2.181,0.92 -2.769,5.435 -5.557,10.861 -8.269,16.325 -0.584,1.176 -2.219,0.306 -2.001,-0.843 1.11,-5.865 3.679,-10.941 7.605,-15.422 0.441,0.571 0.881,1.142 1.322,1.714 -5.205,2.873 -10.65,3.272 -16.427,3.793 -1.146,0.103 -1.288,-1.625 -0.262,-1.942 6.011,-1.861 12.57,-2.728 18.841,-3.213 C 0.808,-1.946 1.048,-0.214 0,0"
         style="fill:#b380ff;fill-opacity:1;fill-rule:nonzero;stroke:none"
         id="path48" /></g><g
       style="fill:#4400aa"
       id="g50"
       transform="translate(217.65381,306.26558)"><path
         d="m 0,0 c 0.066,0.626 -0.641,1.05 -1.253,1.299 -4.086,1.664 -9.005,2.951 -10.833,6.77 -1.006,2.102 -0.786,4.6 0.17,6.73 0.956,2.129 2.584,3.935 4.36,5.534 1.448,1.302 3.053,2.516 4.944,3.131 3.116,1.013 6.697,0.215 9.31,-1.66 2.613,-1.875 4.32,-4.71 5.202,-7.692 0.366,-1.236 0.602,-2.526 0.463,-3.804 C 12.097,7.846 10.483,5.698 8.727,3.849 6.681,1.696 4.364,-0.229 1.84,-1.874 Z"
         style="fill:#4400aa;fill-opacity:1;fill-rule:nonzero;stroke:none"
         id="path52" /></g><g
       style="fill:#4400aa"
       id="g54"
       transform="translate(217.98291,290.98328)"><path
         d="m 0,0 c 1.833,1.674 2.749,4.191 2.637,6.633 -0.113,2.442 -1.196,4.79 -2.816,6.655 -1.583,1.82 -3.95,3.274 -6.37,2.882 -1.871,-0.302 -3.416,-1.666 -4.376,-3.259 -0.96,-1.593 -1.428,-3.412 -1.908,-5.198 -0.098,-0.363 -0.26,-0.789 -0.638,-0.87 -0.484,-0.103 -0.826,0.434 -1.022,0.876 -1.234,2.786 -3.009,5.342 -5.206,7.493 -0.937,0.918 -2.051,1.806 -3.378,1.902 -2.196,0.158 -3.984,-2.061 -4.02,-4.204 -0.037,-2.143 1.197,-4.106 2.586,-5.766 2.357,-2.816 5.295,-5.17 8.588,-6.88 0,0 -18.198,-0.493 -16.823,-4.959 1.375,-4.465 15.92,-1.585 15.92,-1.585 0,0 -7.521,-8.337 -0.783,-12.616 6.738,-4.28 28.168,11.191 28.168,11.191 z"
         style="fill:#4400aa;fill-opacity:1;fill-rule:nonzero;stroke:none"
         id="path56" /></g><g
       style="fill:#4400aa"
       id="g58"
       transform="translate(280.94281,328.42128)"><path
         d="m 0,0 c -0.286,-0.018 -0.572,-0.036 -0.858,-0.053 -0.194,-0.012 -0.199,-0.306 0,-0.305 0.286,0.002 0.572,0.004 0.858,0.006 C 0.228,-0.35 0.226,0.014 0,0"
         style="fill:#4400aa;fill-opacity:1;fill-rule:nonzero;stroke:none"
         id="path60" /></g><g
       style="fill:#c6afe9"
       id="g62"
       transform="translate(210.80901,247.67378)"><path
         d="m 0,0 c -3.901,-2.601 -8.5,-4.201 -13.208,-4.595 -4.127,-0.346 -8.669,0.394 -11.496,3.337 -0.649,0.675 -1.215,1.555 -1.063,2.47 0.212,1.269 1.632,1.933 2.868,2.388 5.862,2.16 12.481,4.311 18.193,1.82 -2.945,2.153 -5.279,5.09 -6.681,8.406 -0.218,0.515 -0.417,1.064 -0.358,1.619 0.064,0.603 0.427,1.137 0.834,1.597 2.96,3.345 8.999,3.402 12.013,0.113 C 2.23,15.924 2.926,14.375 3.457,12.807 4.48,9.783 4.954,6.583 4.85,3.4 Z"
         style="fill:#c6afe9;fill-opacity:1;fill-rule:nonzero;stroke:none"
         id="path64" /></g><g
       style="fill:#b380ff"
       id="g66"
       transform="translate(208.98141,277.34128)"><path
         d="m 0,0 c -1.736,2.548 -3.494,5.121 -5.783,7.214 -2.29,2.093 -5.195,3.693 -8.333,3.88 -1.993,0.118 -4.37,-0.661 -4.856,-2.548 -0.341,-1.321 0.425,-2.723 1.525,-3.563 1.1,-0.84 2.481,-1.235 3.824,-1.613 -3.163,-0.169 -6.606,-0.448 -8.928,-2.549 -1.661,-1.503 -2.453,-3.707 -2.883,-5.873 -0.572,-2.892 -0.583,-5.981 0.632,-8.676 1.222,-2.71 3.685,-4.861 6.585,-5.751 2.901,-0.889 6.19,-0.503 8.794,1.034 0,0 -9.277,-5.45 -4.286,-8.602 4.991,-3.152 10.95,7.981 10.95,7.981 0,0 0.494,-14.235 4.151,-14.108 3.657,0.127 7.879,19.154 7.879,19.154 3.074,0.796 5.247,3.439 6.861,6.107 0.986,1.629 1.868,3.384 2.015,5.268 0.147,1.884 -0.581,3.931 -2.221,4.938 -2.104,1.292 -4.848,0.536 -7.204,-0.255 1.468,1.742 2.935,3.485 4.403,5.227 1.181,1.403 2.4,2.88 2.785,4.654 0.108,0.498 0.142,1.034 -0.068,1.499 -0.592,1.306 -2.552,1.207 -3.896,0.629 C 6.805,11.836 4.189,6.329 2.146,1.232 Z"
         style="fill:#b380ff;fill-opacity:1;fill-rule:nonzero;stroke:none"
         id="path68" /></g><g
       style="fill:#7f2aff"
       id="g70"
       transform="translate(216.28511,308.55368)"><path
         d="m 0,0 c -3.029,-1.154 -6.509,0.039 -9.132,1.903 -3.007,2.137 -5.458,5.95 -3.973,9.279 0.426,0.954 1.134,1.759 1.858,2.525 2.02,2.135 4.245,4.088 6.635,5.824 -0.972,-0.656 -2.052,-1.506 -2.026,-2.656 0.024,-1.042 0.996,-1.85 2.013,-2.176 1.015,-0.326 2.112,-0.315 3.158,-0.534 C 0.892,13.669 2.926,11.914 3.711,9.694 4.498,7.474 4.008,4.868 2.466,3.058 Z"
         style="fill:#7f2aff;fill-opacity:1;fill-rule:nonzero;stroke:none"
         id="path72" /></g><g
       style="fill:#7f2aff"
       id="g74"
       transform="translate(213.79491,329.82558)"><path
         d="m 0,0 c 3.113,1.392 6.903,1.244 9.886,-0.385 2.983,-1.629 5.085,-4.698 5.482,-8.007 z"
         style="fill:#7f2aff;fill-opacity:1;fill-rule:nonzero;stroke:none"
         id="path76" /></g><g
       style="fill:#7f2aff"
       id="g78"
       transform="translate(235.28611,323.36468)"><path
         d="m 0,0 c -3.451,4.208 -5.539,9.46 -5.898,14.837 -0.075,1.113 -0.069,2.271 0.402,3.288 0.472,1.017 1.521,1.855 2.663,1.779 0.962,-0.064 1.758,-0.727 2.427,-1.402 2.471,-2.491 4.268,-5.611 5.163,-8.964 0.97,3.378 2.429,6.623 4.321,9.609 0.836,1.318 2.244,2.76 3.744,2.25 0.684,-0.232 1.165,-0.833 1.509,-1.452 1.351,-2.435 1.119,-5.472 0.051,-8.041 C 13.315,9.335 11.501,7.136 9.702,4.988 Z"
         style="fill:#7f2aff;fill-opacity:1;fill-rule:nonzero;stroke:none"
         id="path80" /></g><g
       style="fill:#330080"
       id="g82"
       transform="translate(248.47121,330.88858)"><path
         d="m 0,0 c 1.284,1.959 3.908,2.985 6.224,2.433 2.315,-0.553 4.15,-2.642 4.349,-4.955 z"
         style="fill:#330080;fill-opacity:1;fill-rule:nonzero;stroke:none"
         id="path84" /></g><g
       style="fill:#4400aa"
       id="g86"
       transform="translate(262.47901,329.58828)"><path
         d="m 0,0 c -1.942,3.916 -3.519,8.004 -4.705,12.198 -0.267,0.944 -0.501,2.007 -0.004,2.86 0.795,1.365 2.954,1.258 4.271,0.356 1.81,-1.241 2.655,-3.4 3.401,-5.43 0.745,-2.026 1.489,-4.051 2.234,-6.076 2.236,2.331 3.59,5.322 5.529,7.894 1.937,2.572 4.85,4.852 8.116,4.637 0.43,-0.028 0.884,-0.111 1.203,-0.393 0.783,-0.69 0.272,-1.943 -0.292,-2.816 C 17.815,10.233 15.744,7.318 13.547,4.495 18.258,7.377 24.021,8.404 29.555,7.898 30.595,7.803 31.696,7.627 32.471,6.947 34.138,5.484 33.265,2.708 31.718,1.119 30.171,-0.47 28.06,-1.603 27.022,-3.544 Z"
         style="fill:#4400aa;fill-opacity:1;fill-rule:nonzero;stroke:none"
         id="path88" /></g><g
       style="fill:#b380ff"
       id="g90"
       transform="translate(294.60011,327.01748)"><path
         d="m 0,0 c 2.103,1.375 4.369,2.628 6.867,3.026 2.499,0.398 5.287,-0.2 6.96,-2.046 1.674,-1.845 1.783,-5.035 -0.143,-6.636 z"
         style="fill:#b380ff;fill-opacity:1;fill-rule:nonzero;stroke:none"
         id="path92" /></g><g
       style="fill:#b380ff"
       id="g94"
       transform="translate(309.09131,279.00478)"><path
         d="m 0,0 c 4.621,2.008 10.209,1.759 14.613,-0.652 0.976,-0.535 2.001,-1.364 1.944,-2.454 C 16.51,-4 15.739,-4.686 14.982,-5.197 12.694,-6.741 9.97,-7.667 7.192,-7.842 c 3.139,-3.644 9.888,-3.161 12.261,-7.318 0.287,-0.504 0.492,-1.09 0.364,-1.653 -0.114,-0.503 -0.479,-0.919 -0.886,-1.249 -1.795,-1.454 -4.339,-1.514 -6.545,-2.256 -2.111,-0.71 -3.973,-2.104 -5.221,-3.907 z"
         style="fill:#b380ff;fill-opacity:1;fill-rule:nonzero;stroke:none"
         id="path96" /></g><g
       style="fill:#5500d4"
       id="g98"
       transform="translate(304.56001,245.28068)"><path
         d="m 0,0 c 1.237,-2.854 3.132,-5.634 6.021,-6.933 2.889,-1.299 6.896,-0.561 8.346,2.202 0.548,1.043 0.688,2.252 0.6,3.419 -0.205,2.739 -1.673,5.364 -3.924,7.018 2.087,-2.36 5.316,-3.719 8.516,-3.582 -1.489,1.153 -3.334,1.863 -5.232,2.012 0,0 10.402,0.223 9.632,3.68 -0.772,3.457 -10.099,0.283 -10.099,0.283 0,0 6.596,6.88 3.918,9.004 C 15.102,19.227 9.098,23.453 3.24,14.065 -2.617,4.677 0.114,0.972 0.114,0.972 Z"
         style="fill:#5500d4;fill-opacity:1;fill-rule:nonzero;stroke:none"
         id="path100" /></g><g
       style="fill:#442178"
       id="g102"
       transform="translate(201.03461,265.18788)"><path
         d="M 0,0 C 2.488,0 2.492,3.867 0,3.867 -2.488,3.867 -2.493,0 0,0"
         style="fill:#442178;fill-opacity:1;fill-rule:nonzero;stroke:none"
         id="path104" /></g><g
       style="fill:#442178"
       id="g106"
       transform="translate(204.49361,271.71188)"><path
         d="M 0,0 C 1.583,0 1.586,2.461 0,2.461 -1.583,2.461 -1.586,0 0,0"
         style="fill:#442178;fill-opacity:1;fill-rule:nonzero;stroke:none"
         id="path108" /></g><g
       style="fill:#442178"
       id="g110"
       transform="translate(206.63331,266.41688)"><path
         d="M 0,0 C 1.463,0 1.465,2.273 0,2.273 -1.463,2.273 -1.465,0 0,0"
         style="fill:#442178;fill-opacity:1;fill-rule:nonzero;stroke:none"
         id="path112" /></g><g
       style="fill:#442178"
       id="g114"
       transform="translate(199.91941,270.04288)"><path
         d="M 0,0 C 1.388,0 1.39,2.156 0,2.156 -1.387,2.156 -1.39,0 0,0"
         style="fill:#442178;fill-opacity:1;fill-rule:nonzero;stroke:none"
         id="path116" /></g><g
       style="fill:#ccaaff"
       id="g118"
       transform="translate(205.92571,320.59998)"><path
         d="m 0,0 c -0.725,-6.273 7.932,-8.074 12.426,-6.237 0.48,0.196 0.669,1.069 0,1.175 C 8.603,-4.458 2.303,-5.66 1.758,0 1.648,1.137 0.129,1.121 0,0"
         style="fill:#ccaaff;fill-opacity:1;fill-rule:nonzero;stroke:none"
         id="path120" /></g><g
       style="fill:#ccaaff"
       id="g122"
       transform="translate(217.98481,328.75578)"><path
         d="M 0,0 C 0.939,-0.499 1.895,-0.964 2.793,-1.533 3.681,-2.096 4.439,-2.857 5.37,-3.35 5.824,-3.59 6.211,-3.12 6.027,-2.692 5.14,-0.634 2.34,0.67 0.225,0.83 -0.218,0.863 -0.379,0.201 0,0"
         style="fill:#ccaaff;fill-opacity:1;fill-rule:nonzero;stroke:none"
         id="path124" /></g><g
       style="fill:#6600ff"
       id="g126"
       transform="translate(227.84371,320.01998)"><path
         d="M 0,0 C 2.633,4.644 1.307,11.049 -2.966,14.326 -1.5,13.477 -0.007,12.605 1.101,11.344 2.831,9.374 3.417,6.682 3.552,4.092 3.726,0.757 3.101,-2.895 0.586,-5.172 Z"
         style="fill:#6600ff;fill-opacity:1;fill-rule:nonzero;stroke:none"
         id="path128" /></g><g
       style="fill:#ccaaff"
       id="g130"
       transform="translate(228.36961,319.71228)"><path
         d="M 0,0 C 3.056,4.783 1.968,12.182 -3.267,15.018 L -3.716,14.249 C 3.673,10.787 3.093,1.33 -0.8,-4.362 c -0.542,-0.792 0.566,-1.967 1.363,-1.363 3.356,2.545 3.872,7.3 3.342,11.239 -0.698,5.198 -3.217,6.641 -7.172,9.504 -0.35,0.253 -0.879,-0.259 -0.609,-0.609 C -0.559,10.096 0.866,5.774 -1.114,0.47 -1.364,-0.201 -0.356,-0.558 0,0"
         style="fill:#ccaaff;fill-opacity:1;fill-rule:nonzero;stroke:none"
         id="path132" /></g><g
       id="g134"
       transform="translate(216.16211,308.44138)"><path
         d="m 0,0 c -5.585,-1.238 -11.815,1.012 -15.211,5.493 1.003,-3.684 4.129,-6.743 7.908,-7.739 3.78,-0.996 8.072,0.107 10.858,2.792 z"
         style="fill:#ed6351;fill-opacity:1;fill-rule:nonzero;stroke:none"
         id="path136" /></g><g
       style="fill:#ccaaff"
       id="g138"
       transform="translate(216.16211,309.01558)"><path
         d="m 0,0 c -5.256,0.178 -11.146,1.041 -14.662,5.468 -0.527,0.662 -1.43,-0.079 -1.297,-0.755 1.628,-8.278 15.18,-13.378 20.273,-5.185 0.507,0.815 -0.46,1.534 -1.202,1.203 -3.36,-1.499 -6.212,-3.316 -10.091,-2.38 -3.707,0.894 -6.011,3.676 -7.562,6.96 -0.406,-0.314 -0.812,-0.627 -1.218,-0.94 3.9,-4.585 9.748,-8.047 15.912,-5.499 C 0.726,-0.891 0.691,-0.023 0,0"
         style="fill:#ccaaff;fill-opacity:1;fill-rule:nonzero;stroke:none"
         id="path140" /></g><g
       style="fill:#7f2aff"
       id="g142"
       transform="translate(314.09421,280.92568)"><path
         d="M 0,0 C 5.042,4.533 11.928,10.033 18.909,10.854 18.65,11.478 18.392,12.102 18.134,12.726 12.84,8.398 5.953,6.798 0.518,2.658 -0.431,1.935 0.056,0.002 1.421,0.516 8.325,3.118 15.358,3.781 22.611,2.383 V 4.878 C 14.082,2.271 5.176,2.383 -3.559,0.92 -5.298,0.629 -4.9,-2.271 -3.141,-2.164 c 7.755,0.472 18.093,-1.482 24.786,-5.703 0.253,0.94 0.508,1.881 0.763,2.821 -7.827,-0.779 -14.361,1.033 -21.455,4.185 -1.565,0.695 -2.829,-1.346 -1.36,-2.328 6.57,-4.39 15.084,-5.621 22.815,-4.884 1.465,0.139 2.098,1.971 0.764,2.82 -7.2,4.584 -17.859,6.708 -26.313,6.229 0.139,-1.028 0.279,-2.056 0.417,-3.084 8.671,1.596 17.654,1.466 26.023,4.491 1.082,0.391 1.37,2.249 0,2.495 C 15.568,6.267 8.128,5.628 0.798,2.776 1.178,2.123 1.558,1.47 1.937,0.818 7.318,5.008 14.025,6.871 19.462,11.004 20.2,11.565 20.13,13.201 18.909,13.047 11.163,12.069 4.292,6.419 -1.127,1.127 -1.866,0.405 -0.759,-0.682 0,0"
         style="fill:#7f2aff;fill-opacity:1;fill-rule:nonzero;stroke:none"
         id="path144" /></g><g
       style="fill:#7f2aff"
       id="g146"
       transform="translate(313.07271,319.01508)"><path
         d="M 0,0 C -0.104,0.578 -0.791,5.187 -0.817,5.202 -0.981,5.292 -1.33,-0.323 -1.341,-0.777 -1.365,-1.894 0.321,-2.427 0.837,-1.367 3.543,4.191 6.37,9.144 10.842,13.516 10.094,13.951 9.347,14.385 8.6,14.82 7.471,9.018 2.78,5.138 -0.248,0.311 -1.142,-1.114 0.771,-2.271 1.916,-1.36 3.786,0.128 5.769,1.34 7.983,2.243 8.722,2.544 13.082,4.42 13.753,3.724 13.679,4.303 13.604,4.882 13.529,5.461 11.952,2.679 4.178,2.368 1.299,1.934 c -1.66,-0.251 -1.25,-2.953 0.392,-2.907 1.467,0.042 9.056,0.681 9.876,-0.828 0.303,0.742 0.605,1.485 0.907,2.227 -4.911,-2.031 -12.128,-0.71 -17.388,-0.775 -1.831,-0.023 -1.75,-2.605 0,-2.789 5.652,-0.597 13.195,-1.501 18.556,0.794 0.763,0.326 0.903,1.431 0.544,2.073 C 12.259,3.175 4.849,2.094 1.691,1.986 1.823,1.018 1.954,0.049 2.085,-0.919 5.952,-0.312 13.797,0.056 16.005,4.014 16.319,4.577 16.232,5.29 15.781,5.751 14.023,7.551 10.897,6.258 8.849,5.581 5.554,4.491 2.653,2.77 -0.033,0.589 l 2.165,-1.67 c 3.127,5.093 7.861,9.096 9.055,15.188 0.25,1.277 -1.236,2.287 -2.243,1.305 C 4.442,11.02 0.473,5.643 -1.299,-0.467 -0.533,-0.57 0.231,-0.674 0.997,-0.777 0.987,1.378 1.395,6.969 -1.593,7.458 -2.267,7.568 -2.805,7.371 -3.195,6.805 -4.651,4.697 -2.968,1.106 -1.842,-0.777 -1.229,-1.801 0.198,-1.092 0,0"
         style="fill:#7f2aff;fill-opacity:1;fill-rule:nonzero;stroke:none"
         id="path148" /></g><g
       id="g150"
       transform="translate(215.93601,253.67868)"><path
         d="m 0,0 c -2.235,-11.565 -2.83,-25.979 -9.664,-35.912 -5.968,-8.674 -13.074,-15.84 -17.045,-25.825 -5.738,-14.426 -3.802,-35.353 12.69,-41.721 0.558,-0.215 0.885,0.651 0.398,0.943 -18.524,11.096 -15.945,34.067 -5.816,50.041 4.681,7.384 11.667,13.644 14.662,21.989 3.398,9.467 4.223,20.473 5.12,30.438 C 0.363,0.149 0.038,0.194 0,0"
         style="fill:#fffcf0;fill-opacity:1;fill-rule:nonzero;stroke:none"
         id="path152" /></g><g
       id="g154"
       transform="translate(298.79441,322.45548)"><path
         d="m 0,0 c 11.085,-2.374 21.284,-9.183 26.919,-19.149 4.604,-8.143 3.223,-15.115 -2.574,-22.04 -3.89,-4.646 -8.273,-8.615 -13.241,-12.08 -0.653,-0.456 -0.097,-1.363 0.616,-1.052 6.442,2.805 11.62,8.327 15.756,13.902 4.249,5.727 5.624,11.657 2.938,18.405 C 25.417,-9.457 13.272,-0.974 0.1,0.737 -0.319,0.791 -0.41,0.088 0,0"
         style="fill:#fffcf0;fill-opacity:1;fill-rule:nonzero;stroke:none"
         id="path156" /></g><g
       id="g158"
       transform="translate(311.21041,277.04098)"><path
         d="M 0,0 C 7.694,0.717 14.566,6.87 16.126,14.438 17.853,22.82 13.321,31.56 6.653,36.924 -0.015,42.288 -10.668,51.631 -46.668,51.631 -70.667,51.297 -34.001,18.964 -34.001,18.964 Z"
         style="fill:#fffcf0;fill-opacity:1;fill-rule:nonzero;stroke:none"
         id="path160" /></g><g
       style="fill:#fdbbb7;fill-opacity:1"
       id="g162"
       transform="translate(323.82081,96.295382)"><path
         d="M 0,0 C -0.98,-0.229 -1.97,-0.45 -2.97,-0.67 -3.02,-0.68 -3.06,-0.689 -3.11,-0.7 h -0.01 c -0.01,0 -0.02,0 -0.03,-0.01 -1.34,-0.28 -2.69,-0.56 -4.07,-0.83 -7.22,-1.41 -14.98,-2.52 -23.31,-3.3 -2.87,-0.27 -5.82,-0.5 -8.83,-0.68 -2.1,-0.13 -4.23,-0.24 -6.4,-0.33 -2.73,-0.11 -5.51,-0.19 -8.35,-0.23 -1.14,-0.02 -2.28,-0.03 -3.44,-0.03 -4.51,-0.02 -9.16,0.04 -13.96,0.19 l -9.76,0.46 0.02,3.17 v 1.08 l 0.14,24.21 0.46,84.021 v 0.009 l 0.05,9.23 v 0.12 l 0.01,2.19 0.06,10.86 8.36,2.9 0.26,0.09 2.26,0.78 0.34,0.12 1.5,0.52 1.92,0.67 0.59,0.2 2.9,1.01 0.12,0.04 2.2,0.761 1.24,0.429 22.32,7.74 v -8.89 -5.94 c 0,-3.33 0.28,-6.66 0.84,-9.94 1.95,-11.63 7.28,-22.7 15.22,-31.359 0.64,-0.701 1.3,-1.381 1.98,-2.051 0.34,-0.34 0.69,-0.68 1.05,-1.01 1.5,-1.41 3.08,-2.74 4.74,-3.97 0.29,-0.219 0.58,-0.43 0.87,-0.64 0.02,-0.02 0.05,-0.03 0.07,-0.05 1.32,-0.95 2.72,-1.88 3.69,-3.16 0.14,-0.18 0.28,-0.38 0.4,-0.58 0.14,-0.22 0.26,-0.45 0.36,-0.69 0.82,-1.8 0.84,-3.91 0.84,-5.93 C -8.14,67.8 -9.51,65.34 -10.6,62.99 -17.55,48.021 -13.07,37.67 -2.32,6.73 -2.28,6.6 -2.23,6.48 -2.19,6.35 -1.76,5.1 -1.31,3.83 -0.87,2.51 -0.59,1.71 -0.31,0.9 -0.03,0.07 h 0.01 C -0.02,0.05 -0.01,0.021 0,0"
         style="fill:#fdbbb7;fill-opacity:1;fill-rule:nonzero;stroke:none"
         id="path164" /></g><g
       style="fill:#fdbbb7;fill-opacity:1"
       id="g166"
       transform="translate(314.99951,265.51508)"><path
         d="m 0,0 v -0.02 c -0.76,-5.49 -1.46,-9.93 -2.08,-13.5 -0.33,-1.89 -0.63,-3.54 -0.91,-4.96 -1.21,-6.17 -1.93,-8.22 -1.93,-8.22 0,0 0.65,-11.68 -30.36,-10.51 -0.82,0.02 -1.6,0.08 -2.34,0.149 -27.79,2.601 -11.75,31.941 -11.75,31.941 L -0.21,0.13 C -0.149,0.09 -0.07,0.04 0,0"
         style="fill:#fdbbb7;fill-opacity:1;fill-rule:nonzero;stroke:none"
         id="path168" /></g><g
       style="fill:#fdbbb7;fill-opacity:1"
       id="g170"
       transform="translate(252.18501,228.26898)"><path
         d="m 0,0 c -12.016,7.998 -22.728,18.468 -28.965,31.485 -6.237,13.017 -7.569,28.78 -1.539,41.894 9.714,21.13 36.906,30.39 59.373,24.385 C 43.149,93.947 56.467,84.235 61.57,70.362 65.427,59.88 64.324,48.293 62.81,37.227 62.091,31.972 61.255,26.617 58.81,21.911 54.162,12.967 44.568,7.851 35.292,3.908 28.685,1.101 21.771,-1.425 14.593,-1.513 7.415,-1.6 -0.151,1.149 -4.233,7.055 Z"
         style="fill:#fdbbb7;fill-opacity:1;fill-rule:nonzero;stroke:none"
         id="path172" /></g><g
       style="fill:#d38d5f;fill-opacity:1"
       id="g174"
       transform="translate(261.22311,261.98528)"><path
         d="M 0,0 C 5.734,-5.124 16.605,-4.154 22.576,0.059 23.315,0.58 23.175,2.104 22.056,1.98 18.731,1.614 15.726,-0.044 12.439,-0.74 8.281,-1.62 4.459,-1.106 0.653,0.847 0.134,1.113 -0.479,0.428 0,0"
         style="fill:#d38d5f;fill-opacity:1;fill-rule:nonzero;stroke:none"
         id="path176" /></g><g
       style="fill:#d38d5f;fill-opacity:1"
       id="g178"
       transform="translate(286.95751,278.44528)"><path
         d="m 0,0 c -3.077,5.474 -9.656,8.751 -15.879,7.913 -5.316,-0.717 -9.907,-4.076 -13.737,-7.832 2.525,2.135 6.022,2.714 9.329,2.699 2.052,-0.009 4.097,-0.215 6.138,-0.42 4.433,-0.445 8.868,-0.891 13.302,-1.337 z"
         style="fill:#d38d5f;fill-opacity:1;fill-rule:nonzero;stroke:none"
         id="path180" /></g><g
       style="fill:#ffaaaa"
       id="g182"
       transform="translate(269.78951,244.98478)"><path
         d="M 0,0 C -0.981,0.282 -2.21,1.059 -2.809,1.927 -3.69,3.207 -2.033,3.568 -1.046,3.744 -0.229,3.89 4.086,4.358 3.656,2.4 3.38,1.141 0.429,2.338 -0.14,2.779 -0.184,2.813 -1.009,3.791 -1.067,3.8 -1.286,4.265 -1.354,4.107 -1.272,3.328 -1.55,2.589 -1.394,2.409 -0.805,2.787 0.194,2.387 0.729,2.486 1.028,1.192 1.394,2.089 1.759,2.986 2.123,3.882 0.89,3.234 -0.274,3.707 -1.121,4.707 -1.466,3.401 -1.811,2.095 -2.155,0.789 -1.379,1.045 -0.985,0.955 -0.213,0.706 2.218,-0.075 3.479,3.389 1.467,4.69 -0.037,5.663 -1.695,5.765 -3.401,5.31 -5.23,4.821 -5.521,2.705 -4.436,1.393 -2.217,-1.292 1.515,-1.772 4.528,-0.231 5.497,0.265 5.841,1.466 5.623,2.459 4.952,5.514 2.297,7.717 -0.861,7.619 -3.813,7.527 -6.898,5.201 -5.616,2.028 -3.676,-2.774 6.06,-5.635 8.143,0.569 8.996,3.11 7.775,6.026 5.501,7.393 2.946,8.928 -0.362,8.547 -3.026,7.512 -5.559,6.529 -7.927,3.951 -6.616,1.077 -5.546,-1.273 -2.48,-2.94 0,-2.6 1.388,-2.408 1.172,-0.337 0,0"
         style="fill:#ffaaaa;fill-opacity:1;fill-rule:nonzero;stroke:none"
         id="path184" /></g><g
       style="fill:#ac9d93;fill-opacity:0.268853"
       id="g186"
       transform="translate(261.51361,268.11318)"><path
         d="m 0,0 c 6.103,2.842 15.916,3.12 21.07,-1.644 0.721,-0.666 2.086,0.239 1.435,1.108 C 17.558,6.067 5.74,4.77 -0.473,0.809 -0.989,0.48 -0.542,-0.252 0,0"
         style="fill:#ac9d93;fill-opacity:0.268853;fill-rule:nonzero;stroke:none"
         id="path188" /></g><g
       style="fill:#d38d5f;fill-opacity:1"
       id="g190"
       transform="translate(312.75341,263.87098)"><path
         d="m 0,0 c -2.105,-1.559 -4.018,-2.268 -6.559,-1.215 -1.777,0.736 -3.176,2.179 -5.123,2.293 -0.799,0.047 -1.259,-0.906 -0.89,-1.552 1.289,-2.256 5.01,-3.453 7.522,-3.48 2.438,-0.026 4.589,1.068 5.787,3.216 C 0.98,-0.303 0.457,0.338 0,0"
         style="fill:#d38d5f;fill-opacity:1;fill-rule:nonzero;stroke:none"
         id="path192" /></g><g
       style="fill:#d38d5f;fill-opacity:1"
       id="g194"
       transform="translate(299.04241,277.90718)"><path
         d="M 0,0 C 1.698,4.936 5.326,7.893 8.758,7.136 11.689,6.49 14.222,3.46 16.334,0.072 14.941,1.999 13.013,2.521 11.188,2.507 10.058,2.499 8.93,2.313 7.804,2.128 L 0.468,0.923 Z"
         style="fill:#d38d5f;fill-opacity:1;fill-rule:nonzero;stroke:none"
         id="path196" /></g><g
       style="fill:#ffaaaa"
       id="g198"
       transform="translate(312.91941,251.99508)"><path
         d="M 0,0 C -0.33,-1.89 -0.63,-3.54 -0.91,-4.96 -1.689,-5.98 -2.77,-6.82 -4.02,-6.791 -5,-7.16 -6.069,-7.24 -7.12,-6.89 c -2.14,0.69 -3.12,2.9 -3,5.02 C -10,0.19 -9,2.29 -7.04,3.15 -5.05,4.03 -2.439,3.31 -1,1.71 -0.55,1.22 -0.21,0.63 0,0"
         style="fill:#ffaaaa;fill-opacity:1;fill-rule:nonzero;stroke:none"
         id="path200" /></g><g
       style="fill:#ac9d93;fill-opacity:0.268853"
       id="g202"
       transform="translate(313.53761,269.28458)"><path
         d="m 0,0 c -3.486,3.952 -11.296,4.222 -13.32,-1.353 -0.381,-1.049 1.103,-1.471 1.671,-0.704 1.528,2.066 2.962,2.882 5.619,2.923 2.028,0.031 3.806,-0.4 5.462,-1.602 C -0.116,-1.064 0.332,-0.377 0,0"
         style="fill:#ac9d93;fill-opacity:0.268853;fill-rule:nonzero;stroke:none"
         id="path204" /></g><g
       id="g206"
       transform="translate(294.39111,93.835382)"><path
         d="M 0,0 C -0.36,-0.82 -0.73,-1.61 -1.101,-2.38 -1.21,-2.6 -1.311,-2.81 -1.42,-3.02 -5.221,-3.45 -9.15,-3.8 -13.21,-4.07 c -0.94,-0.06 -1.9,-0.12 -2.86,-0.18 -3.151,-0.18 -6.39,-0.31 -9.701,-0.4 -1.049,-0.03 -2.109,-0.05 -3.169,-0.07 -9.331,-0.16 -19.27,0.06 -29.871,0.69 -17.119,-0.46 -34.279,2.25 -50.5,7.76 -0.449,3.08 -0.289,6.35 0.101,9.47 1.29,10.48 2.58,20.95 3.87,31.42 -0.471,-0.66 -1,-1.26 -1.59,-1.8 -0.92,-0.86 -1.96,-1.57 -3.1,-2.09 -0.37,-0.18 -0.75,-0.34 -1.14,-0.47 -0.46,9.91 1.109,19.9 4.6,29.18 0.15,0.41 0.31,0.81 0.47,1.21 0.43,1.09 0.88,2.17 1.36,3.24 3.77,8.54 8.73,16.56 12.27,25.2 3.26,7.95 5.26,16.29 6.61,24.79 0.299,1.87 0.569,3.75 0.799,5.641 v 0.019 c 0.261,1.96 0.491,3.92 0.681,5.9 0,0.01 0.01,0.02 0,0.04 0.359,3.39 0.65,6.78 0.93,10.18 v 0.02 c 0.13,1.6 0.25,3.21 0.38,4.81 l -0.011,0.26 -0.099,3.37 -0.29,9.27 v 0.01 l -0.071,2.22 v 0.01 l -0.049,1.82 -0.14,4.62 -0.16,5.05 -0.06,2.04 -0.02,0.5 v 0.01 l -0.03,1.2 -0.021,0.52 -0.029,0.86 v 0.01 l -0.011,0.5 v 0.01 l -0.029,0.9 -0.02,0.58 -0.01,0.26 c 0.01,0.01 0,0.01 0,0.01 l -0.02,0.67 v 0.01 l -0.05,1.55 v 0.01 0.09 l -0.07,2.24 c 0.01,0 0,0.01 0,0.01 l -0.09,3.02 c 0,0 0.18,0.05 0.519,0.13 0.171,0.04 0.371,0.09 0.611,0.15 0.12,0.03 0.24,0.06 0.38,0.09 0.99,0.22 2.41,0.53 4.13,0.84 0.22,0.04 0.45,0.08 0.68,0.12 h 0.009 c 0.521,0.09 1.051,0.18 1.621,0.27 0.56,0.08 1.14,0.17 1.74,0.25 h 0.01 c 0.54,0.07 1.08,0.14 1.65,0.2 0.18,0.02 0.37,0.04 0.56,0.06 0.01,0.01 0.02,0 0.02,0 h 0.01 c 0.22,0.03 0.44,0.05 0.66,0.07 0.36,0.04 0.72,0.07 1.08,0.1 0.28,0.02 0.58,0.05 0.87,0.07 1.96,0.13 3.98,0.18 5.969,0.1 1.011,-0.04 2.02,-0.12 3,-0.24 7.491,-0.91 13.641,-4.25 12.631,-13.06 -0.23,-2.04 -0.35,-3.95 -0.361,-5.76 0,-0.92 0.02,-1.8 0.071,-2.66 0,-0.21 0.02,-0.42 0.03,-0.62 0.02,-0.26 0.04,-0.51 0.07,-0.76 0,-0.04 0,-0.08 0.02,-0.13 0.92,-10.52 5.63,-17.26 10.45,-24.77 1.52,-2.37 3.05,-4.83 4.47,-7.5 0.01,0 0.01,-0.01 0.01,-0.02 0.109,-0.18 0.2,-0.36 0.3,-0.55 0.05,-0.1 0.11,-0.21 0.17,-0.32 0.829,-1.56 1.88,-3.29 3.11,-5.19 1.83,-2.85 4.059,-6.1 6.49,-9.76 1.43,-2.15 2.939,-4.44 4.49,-6.88 0.84,-1.32 1.68,-2.69 2.54,-4.1 l 0.02,-0.02 c 0.62,-1.02 1.24,-2.07 1.86,-3.14 0.01,-0.01 0.02,-0.02 0.02,-0.03 1.469,-2.5 2.95,-5.13 4.389,-7.88 v -0.01 c 2.891,-5.5 5.7,-11.52 8.2,-18.07 0.061,-0.16 0.121,-0.31 0.181,-0.48 0.01,-0.01 0.02,-0.02 0.01,-0.04 1.75,-4.62 3.34,-9.5 4.71,-14.65 0.889,-3.38 1.679,-6.88 2.36,-10.49 0.11,-0.59 0.22,-1.169 0.31,-1.76 V 55.67 C 5.96,54.37 6.17,53.06 6.359,51.74 6.41,51.4 6.46,51.06 6.5,50.72 6.529,50.54 6.55,50.37 6.58,50.19 9.449,28.44 5.13,11.55 0,0"
         style="fill:#fffcf0;fill-opacity:1;fill-rule:nonzero;stroke:none"
         id="path208" /></g><g
       id="g210"
       transform="translate(244.99121,269.29978)"><path
         d="m 0,0 c -1.683,-8.802 2.619,-17.224 7.442,-24.304 6.242,-9.165 13.039,-17.777 18.38,-27.544 5.401,-9.88 9.609,-20.42 11.928,-31.457 2.524,-12.013 1.932,-23.277 0.652,-35.348 -0.06,-0.561 0.784,-0.618 0.944,-0.128 6.326,19.384 0.63,42.255 -7.686,60.111 -4.502,9.664 -10.198,18.704 -16.547,27.253 C 7.872,-21.667 1.278,-12.644 0.575,-0.078 0.558,0.233 0.065,0.342 0,0"
         style="fill:#fffcf0;fill-opacity:1;fill-rule:nonzero;stroke:none"
         id="path212" /></g><g
       id="g214"
       transform="translate(261.94481,229.02188)"><path
         d="m 0,0 c 5.321,-10.026 10.121,-20.145 13.01,-31.168 2.977,-11.366 4.637,-22.832 8.257,-34.058 3.589,-11.13 6.04,-22.386 6.467,-34.113 0.448,-12.261 -2.006,-23.577 -3.863,-35.577 -0.177,-1.139 1.284,-1.54 1.717,-0.473 4.235,10.42 5.02,23.104 4.799,34.24 -0.238,11.922 -2.467,23.57 -6.083,34.911 C 17.122,-43.722 14.751,-19.342 0.507,0.295 0.288,0.596 -0.18,0.339 0,0"
         style="fill:#fffcf0;fill-opacity:1;fill-rule:nonzero;stroke:none"
         id="path216" /></g><g
       id="g218"
       transform="translate(250.91891,236.14198)"><path
         d="m 0,0 c 4.279,-10.529 11.676,-18.888 19.083,-27.33 8.45,-9.636 16.126,-19.855 22.129,-31.213 6.27,-11.863 10.505,-24.864 11.888,-38.238 1.404,-13.589 -1.18,-26.056 -6.016,-38.688 -0.209,-0.547 0.671,-0.908 0.943,-0.397 11.75,22.124 8.286,50.582 -1.668,72.57 -5.147,11.369 -12.14,21.808 -20.074,31.41 C 17.583,-21.355 7.286,-11.97 1.478,0.623 1.099,1.445 -0.346,0.853 0,0"
         style="fill:#fffcf0;fill-opacity:1;fill-rule:nonzero;stroke:none"
         id="path220" /></g><g
       id="g222"
       transform="translate(301.15081,148.16548)"><path
         d="m 0,0 v -0.01 c -0.03,-1.12 -0.07,-2.24 -0.13,-3.35 v -0.01 c -0.02,-0.26 -0.03,-0.51 -0.05,-0.77 -0.47,-7.04 -1.81,-13.95 -4.66,-20.42 -1.17,-2.65 -2.6,-5.13 -4.21,-7.5 -1.11,-1.65 -2.31,-3.25 -3.56,-4.8 -1.46,-1.82 -3,-3.59 -4.55,-5.33 -2.611,-2.93 -5.23,-6.03 -7.93,-9.07 -2.05,-2.31 -4.16,-4.57 -6.35,-6.69 -0.36,-0.35 -0.72,-0.69 -1.09,-1.03 -1.05,-0.03 -2.11,-0.05 -3.17,-0.07 0.26,0.36 0.54,0.72 0.82,1.07 2.7,3.43 5.74,6.61 8.85,9.75 4.81,4.86 9.759,9.59 13.87,14.95 l 0.01,0.009 c 1.17,1.521 2.27,3.091 3.27,4.731 v 0.01 c 1.45,2.34 2.7,4.8 3.7,7.45 1.75,4.62 2.79,9.47 3.33,14.41 0.31,2.79 0.46,5.61 0.49,8.43 v 0.01 c 0.01,0.45 0.01,0.89 0.01,1.34 -0.01,3.1 -0.15,6.2 -0.39,9.28 v 0.01 c -0.01,0.22 -0.031,0.45 -0.05,0.67 -0.21,2.65 -0.49,5.29 -0.8,7.88 -0.04,0.37 -0.08,0.73 -0.13,1.09 v 0.01 c -0.051,0.429 -0.1,0.84 -0.15,1.26 -1.81,14.44 -9.09,24.05 -19.24,33.68 -0.32,0.3 -0.64,0.61 -0.97,0.91 l -0.02,0.02 c -0.98,0.91 -1.95,1.82 -2.921,2.73 -1.049,0.98 -2.089,1.97 -3.109,2.97 -1.08,1.05 -2.15,2.12 -3.181,3.21 -3.659,3.85 -6.969,7.97 -9.439,12.7 -0.53,1.01 -1.02,2.04 -1.47,3.11 -0.19,0.45 -0.37,0.9 -0.54,1.36 -0.14,0.36 0.42,0.5 0.56,0.16 0.18,-0.44 0.37,-0.88 0.57,-1.32 0.55,-1.22 1.17,-2.4 1.84,-3.55 1.97,-3.39 4.41,-6.46 7.07,-9.35 l 0.01,-0.01 c 1.09,-1.18 2.2,-2.33 3.35,-3.451 l 0.01,-0.009 c 0.96,-0.95 1.92,-1.87 2.91,-2.78 0,-0.01 0,-0.01 0.01,-0.02 0.59,-0.55 1.19,-1.1 1.79,-1.65 0.76,-0.71 1.53,-1.41 2.29,-2.11 l 0.01,-0.01 c 2.25,-2.06 4.48,-4.11 6.6,-6.23 8.99,-9.01 13.67,-18.52 15.34,-30.9 v -0.01 c 0.089,-0.66 0.17,-1.32 0.24,-2 0.13,-1.21 0.25,-2.42 0.36,-3.64 0.16,-1.6 0.3,-3.2 0.41,-4.82 0.14,-1.81 0.24,-3.62 0.32,-5.44 C 0.02,4.57 0.05,2.28 0,0"
         style="fill:#fffcf0;fill-opacity:1;fill-rule:nonzero;stroke:none"
         id="path224" /></g><g
       style="fill:#fdbbb7;fill-opacity:1"
       id="g226"
       transform="translate(240.00291,95.206482)"><path
         d="m 0,0 c 0.17,-0.14 0.353,-0.257 0.53,-0.385 11.502,1.319 23.029,4.987 32.908,11.093 -0.554,0.739 -0.752,1.69 -0.908,2.607 -2.732,16.086 -2.491,32.52 -4.138,48.753 -1.646,16.234 -3.185,55.775 -29.372,55.775 -6.313,0 -13.947,-19.749 -14.76,-32.009 C -17.444,60.125 -13.982,34.085 -5.621,9.715 -4.39,6.128 -2.934,2.402 0,0"
         style="fill:#fdbbb7;fill-opacity:1;fill-rule:nonzero;stroke:none"
         id="path228" /></g><g
       style="fill:#ac9d93;fill-opacity:0.268853"
       id="g230"
       transform="translate(296.94971,265.14198)"><path
         d="m 0,0 c -0.491,-2.187 -0.528,-4.289 -0.229,-6.507 0.331,-2.44 3.039,-8.498 -1.377,-8.668 -1.191,-0.046 -1.774,-1.722 -0.633,-2.337 2.527,-1.36 5.741,0.344 6.325,3.157 0.431,2.078 -0.691,4.279 -1.186,6.234 C 2.224,-5.442 1.911,-2.699 1.333,0 1.191,0.663 0.146,0.655 0,0"
         style="fill:#ac9d93;fill-opacity:0.268853;fill-rule:nonzero;stroke:none"
         id="path232" /></g><g
       style="fill:#fdbbb7;fill-opacity:1"
       id="g234"
       transform="translate(288.13911,216.21528)"><path
         d="m 0,0 c -3.859,1.08 -10.09,4.6 -16.92,15.449 0.231,-0.21 4.28,-3.76 16.08,-3.42 V 9.939 C -0.84,6.609 -0.56,3.279 0,0"
         style="fill:#fdbbb7;fill-opacity:1;fill-rule:nonzero;stroke:none"
         id="path236" /></g><g
       style="fill:#ff0000"
       id="g238"
       transform="translate(289.39691,241.25818)"><path
         d="m 0,0 c 0.312,-0.315 3.438,-3.878 7.187,-3.94 3.751,-0.063 3.938,4.223 3.938,4.223 z"
         style="fill:#ff0000;fill-opacity:1;fill-rule:nonzero;stroke:none"
         id="path240" /></g><g
       style="fill:#d40000"
       id="g242"
       transform="translate(289.39691,241.25818)"><path
         d="M 0,0 C 0,0 5.705,2.762 5.705,2.529 5.705,2.297 7.253,1.29 7.253,1.29 L 9.422,2.685 11.125,0.283 C 11.125,0.283 6.066,-1.136 0,0"
         style="fill:#d40000;fill-opacity:1;fill-rule:nonzero;stroke:none"
         id="path244" /></g><g
       style="fill:#fdbbb7;fill-opacity:1"
       id="g246"
       transform="translate(245.54981,93.298282)"><path
         d="M 0,0 C 35.063,-1.085 61.238,63.886 61.238,63.886 L 52.281,68.771 -10.636,19.946 C -10.636,19.946 -13.063,1.419 0,0"
         style="fill:#fdbbb7;fill-opacity:1;fill-rule:nonzero;stroke:none"
         id="path248" /></g><g
       style="fill:#fdbbb7;fill-opacity:1"
       id="g250"
       transform="translate(295.64791,155.32268)"><path
         d="m 0,0 c 2.308,1.089 -2.499,4.237 -2.543,11.062 -0.274,1.765 2.314,3.137 -0.686,10.52 5.643,1.778 4.196,-8.186 5.939,-7.858 1.743,0.327 2.144,5.7 2.585,8.745 0.442,3.044 2.476,8.626 3.809,8.118 1.331,-0.507 0.156,-7.511 -0.445,-11.211 0.999,3.972 2.253,7.879 3.75,11.691 0.741,1.885 1.608,3.834 3.222,5.057 0.186,0.141 0.422,0.276 0.64,0.193 0.216,-0.082 0.303,-0.337 0.358,-0.563 1.339,-5.574 -2.405,-16.645 -1.547,-17.008 0.858,-0.364 3.847,15.008 5.483,14.442 1.638,-0.564 1.043,-3.422 0.921,-5.222 -0.309,-4.586 -1.146,-9.137 -2.487,-13.533 1.632,2.552 4.584,7.561 5.644,7.104 C 26.955,20.611 21.717,8.597 18.132,4.562 16.877,3.151 15.485,1.868 14.097,0.588 11.259,-2.029 8.42,-4.647 5.581,-7.265 Z"
         style="fill:#fdbbb7;fill-opacity:1;fill-rule:nonzero;stroke:none"
         id="path252" /></g><g
       id="g254"
       transform="translate(227.17531,268.37928)"><path
         d="m 0,0 c 15.295,-7.197 32.615,0.571 46.768,10.543 6.372,4.49 12.691,9.654 16.692,17.07 4.001,7.416 5.185,17.593 1.118,24.958 C 47.067,59.493 27.815,66.397 10.618,58.44 4.182,55.463 -1.707,50.545 -5.94,44.086 -11.896,35 -15.029,33.958 -17.134,17.571 -19.238,1.185 -6.396,-24 -6.396,-24 Z"
         style="fill:#fffcf0;fill-opacity:1;fill-rule:nonzero;stroke:none"
         id="path256" /></g><g
       id="g258"
       transform="translate(267.66351,326.55268)"><path
         d="m 0,0 c 4.926,-1.584 9.958,-2.717 14.996,-3.876 5.046,-1.16 10.332,-2.23 13.13,-7.063 5.689,-9.828 -1.325,-21.072 -7.444,-28.734 -6.379,-7.989 -14.095,-13.742 -24.102,-16.3 -11.387,-2.911 -22.086,-0.923 -33.443,0.68 -0.994,0.14 -1.421,-1.199 -0.424,-1.537 11.723,-3.976 25.841,-4.348 37.633,-0.488 11.175,3.656 19.261,11.565 25.925,21.005 5.621,7.964 9.715,18.387 4.353,27.602 C 25.014,0.927 10.086,1.327 0.305,2.256 -1.034,2.383 -1.18,0.379 0,0"
         style="fill:#fffcf0;fill-opacity:1;fill-rule:nonzero;stroke:none"
         id="path260" /></g><g
       id="g262"
       transform="translate(211.10541,240.28848)"><path
         d="m 0,0 c -3.954,-19.613 -9.639,-39.003 -18.079,-57.173 -7.174,-15.443 -20.43,-32.694 -16.388,-50.744 0.183,-0.819 1.515,-0.648 1.473,0.199 -1.011,20.377 11.795,36.623 19.392,54.616 7.182,17.008 12.073,34.693 14.039,53.043 C 0.464,0.189 0.049,0.245 0,0"
         style="fill:#fffcf0;fill-opacity:1;fill-rule:nonzero;stroke:none"
         id="path264" /></g><g
       id="g266"
       transform="translate(202.61081,173.14498)"><path
         d="m 0,0 c -1.47,-5.899 -4.15,-11.27 -6.89,-16.649 -0.32,-0.63 -0.64,-1.26 -0.96,-1.901 l -0.33,-0.66 c -2.82,-5.579 -5.19,-11.31 -6.97,-17.279 -0.33,-1.071 -0.64,-2.141 -0.92,-3.231 -3.1,-11.91 -3.56,-23.62 -2.41,-35.53 -0.98,0.341 -1.96,0.69 -2.93,1.051 -1.07,10.62 -0.15,21.59 2.19,31.79 0.29,1.279 0.61,2.559 0.97,3.83 1.47,5.449 3.43,10.769 5.82,15.899 0.91,1.97 1.93,3.87 2.97,5.76 0.37,0.67 0.74,1.33 1.11,1.99 2.75,4.91 5.52,9.79 7.02,15.3 C -1.1,1.23 0.22,0.87 0,0"
         style="fill:#fffcf0;fill-opacity:1;fill-rule:nonzero;stroke:none"
         id="path268" /></g><g
       id="g270"
       transform="translate(237.10251,217.41248)"><path
         d="m 0,0 c 6.919,-4.665 12.484,-10.71 15.514,-18.586 3.319,-8.626 2.301,-17.443 0.936,-26.358 -1.733,-11.312 -3.562,-26.067 6.854,-33.938 0.481,-0.363 1.012,0.402 0.625,0.811 C 10.726,-64.117 20.338,-45.938 19.532,-29.4 18.925,-16.936 11.774,-4.774 0.65,1.113 -0.088,1.504 -0.686,0.462 0,0"
         style="fill:#fffcf0;fill-opacity:1;fill-rule:nonzero;stroke:none"
         id="path272" /></g><g
       style="fill:#442178"
       id="g274"
       transform="translate(207.56341,276.63418)"><path
         d="m 0,0 c -0.348,4.507 0.107,9.075 1.339,13.425 0.317,1.12 0.972,2.447 2.137,2.432 C 4.104,10.807 3.453,5.603 1.602,0.863 4.459,5.091 8.213,8.71 12.543,11.41 c 0.802,0.501 1.979,0.918 2.577,0.186 C 12.626,6.225 8.311,1.72 3.052,-1.002 7.587,1.589 13.369,1.87 18.134,-0.272 L 2.999,-4.385 c 3.312,-1.075 6.642,-2.237 9.547,-4.157 2.905,-1.921 5.381,-4.701 6.264,-8.069 -4.709,1.18 -8.771,4.079 -12.708,6.919 2.481,-2.498 4.754,-5.203 6.787,-8.077 0.447,-0.631 0.904,-1.361 0.768,-2.123 -0.158,-0.884 -1.101,-1.454 -1.998,-1.483 -0.897,-0.03 -1.751,0.354 -2.555,0.753 -3.564,1.768 -6.896,4.003 -9.882,6.631 z"
         style="fill:#442178;fill-opacity:1;fill-rule:nonzero;stroke:none"
         id="path276" /></g><g
       style="fill:#b380ff;fill-opacity:1"
       id="g278"
       transform="translate(208.78221,276.63418)"><path
         d="M 0,0 C -0.133,3.474 -0.656,9.273 0.97,12.312 2.046,14.321 1.892,10.997 1.822,9.933 1.614,6.735 1.027,4.176 -0.39,1.315 -0.81,0.467 0.348,-0.618 1.017,0.229 c 1.711,2.168 9.171,12.036 12.352,10.457 -0.126,0.48 -0.252,0.961 -0.378,1.442 C 10.392,6.73 6.615,2.708 1.332,-0.145 0.196,-0.758 1.195,-2.411 2.334,-1.86 7.068,0.43 11.75,0.505 16.586,-1.465 V 0.92 C 11.525,-0.375 6.462,-1.713 1.449,-3.184 c -1.22,-0.358 -1.146,-2.013 0,-2.402 6.152,-2.091 12.594,-4.725 14.831,-11.386 0.557,0.557 1.115,1.115 1.672,1.672 -4.658,1.369 -8.485,3.982 -12.383,6.781 -1.285,0.923 -2.687,-1.058 -1.647,-2.135 1.226,-1.268 2.425,-2.547 3.561,-3.897 0.762,-0.904 5.108,-4.676 1.132,-4.821 -2.428,-0.089 -7.862,5.192 -9.435,6.558 -1.62,1.405 -3.995,-0.996 -2.354,-2.354 2.966,-2.453 11.486,-10.2 15.733,-6.878 4.435,3.468 -4.567,11.092 -6.714,13.315 -0.55,-0.712 -1.098,-1.424 -1.648,-2.135 4.093,-2.939 8.162,-5.625 13.032,-7.056 0.958,-0.281 2.004,0.686 1.672,1.672 C 16.33,-8.591 9.299,-5.5 2.111,-3.184 v -2.402 c 5.068,1.268 10.112,2.677 15.133,4.121 1.242,0.358 1.102,1.972 0,2.385 C 11.818,2.954 6.434,2.566 1.332,-0.145 1.666,-0.717 2,-1.289 2.334,-1.86 c 5.404,3.07 9.62,7.396 12.478,12.923 0.253,0.491 0.146,1.164 -0.378,1.443 C 9.422,15.174 1.82,4.822 -0.39,1.315 0.156,1.085 0.701,0.855 1.247,0.625 2.458,5.832 3.086,10.499 2.997,15.857 2.988,16.347 2.531,16.686 2.06,16.57 -3.407,15.228 -2.732,4.125 -2.438,0 -2.327,-1.548 0.061,-1.582 0,0"
         style="fill:#b380ff;fill-opacity:1;fill-rule:nonzero;stroke:none"
         id="path280" /></g><g
       style="fill:#b380ff"
       id="g282"
       transform="translate(251.22701,308.78948)"><path
         d="m 0,0 c 4.46,-1.03 9.333,-2.479 11.813,-6.43 0.649,-1.033 0.981,-2.635 -0.019,-3.29 -0.356,-0.233 -0.802,-0.274 -1.226,-0.248 -1.51,0.089 -2.883,0.904 -4.191,1.697 -1.623,0.986 -3.247,1.971 -4.87,2.957 0.953,-1.839 1.928,-4.003 1.133,-5.902 -0.619,-1.48 -2.212,-2.342 -3.783,-2.462 -1.571,-0.121 -3.129,0.381 -4.598,0.984 -2.405,0.987 -4.861,2.439 -5.91,4.869 0,0 -16.216,1.039 -16.789,4.035 -0.573,2.997 11.09,5.228 11.09,5.228 0,0 -9.936,3.482 -7.979,7.998 1.957,4.515 7.636,-2.428 7.636,-2.428 -1.6,1.948 -2.34,4.608 -1.979,7.112 0.361,2.503 1.817,4.808 3.893,6.162 2.064,1.345 4.61,1.733 7.066,1.632 1.84,-0.075 3.757,-0.445 5.208,-1.621 2.028,-1.644 2.7,-4.445 3.244,-7.029 0.139,1.156 0.288,2.343 0.839,3.358 0.551,1.013 1.608,1.824 2.74,1.713 C 4.934,18.176 5.881,16.318 6.039,14.661 6.288,12.052 5.342,9.454 3.911,7.299 2.48,5.145 0.586,3.367 -1.291,1.61 c 0,0 10.725,5.847 12.299,2.506 C 12.583,0.775 0,0 0,0"
         style="fill:#b380ff;fill-opacity:1;fill-rule:nonzero;stroke:none"
         id="path284" /></g><g
       style="fill:#220055"
       id="g286"
       transform="translate(222.95311,297.76118)"><path
         d="m 0,0 c -2.299,4.619 -3.893,9.588 -4.708,14.682 -0.146,0.913 -0.077,2.141 0.815,2.383 0.892,0.243 1.573,-0.783 1.899,-1.647 1.562,-4.14 2.349,-8.571 2.308,-12.996 0.355,4.121 1.657,8.158 3.775,11.711 0.655,1.098 1.437,2.196 2.587,2.755 1.15,0.558 2.749,0.377 3.428,-0.706 C 10.947,14.836 9.994,13.119 9.066,11.83 6.623,8.433 4.18,5.036 1.736,1.64 5.066,4.755 9.624,6.521 14.184,6.46 14.932,6.451 15.779,6.342 16.219,5.737 16.732,5.032 16.387,3.973 15.712,3.42 15.038,2.868 14.14,2.693 13.282,2.536 9.773,1.893 6.264,1.25 2.755,0.606 8.207,-0.249 13.429,-2.53 17.76,-5.951 12.135,-5.187 6.75,-2.731 2.485,1.015 4.092,-1.304 6.402,-3.039 8.223,-5.194 10.044,-7.35 11.397,-10.272 10.535,-12.959 6.796,-8.682 3.606,-3.924 1.068,1.158 0.685,-0.534 1.1,-2.292 1.151,-4.026 1.204,-5.76 0.731,-7.733 -0.788,-8.572 -1.8,-9.131 -3.031,-9.049 -4.183,-8.951 c -3.657,0.312 -7.315,0.624 -10.972,0.936 4.295,3.262 8.953,6.044 13.861,8.279 -5.569,-0.97 -11.519,0.505 -15.992,3.962 -0.559,0.432 -1.137,1.214 -0.687,1.758 0.244,0.297 0.677,0.334 1.06,0.348 6.01,0.223 12.684,0.219 17.156,-3.801 z"
         style="fill:#220055;fill-opacity:1;fill-rule:nonzero;stroke:none"
         id="path288" /></g><g
       style="fill:#330080"
       id="g290"
       transform="translate(240.02981,309.53168)"><path
         d="M 0,0 C 1.734,0 1.737,2.695 0,2.695 -1.734,2.695 -1.737,0 0,0"
         style="fill:#330080;fill-opacity:1;fill-rule:nonzero;stroke:none"
         id="path292" /></g><g
       style="fill:#330080"
       id="g294"
       transform="translate(242.27981,312.11368)"><path
         d="M 0,0 C 1.629,0 1.632,2.531 0,2.531 -1.628,2.531 -1.631,0 0,0"
         style="fill:#330080;fill-opacity:1;fill-rule:nonzero;stroke:none"
         id="path296" /></g><g
       style="fill:#330080"
       id="g298"
       transform="translate(245.52981,308.01998)"><path
         d="M 0,0 C 1.75,0 1.752,2.719 0,2.719 -1.749,2.719 -1.752,0 0,0"
         style="fill:#330080;fill-opacity:1;fill-rule:nonzero;stroke:none"
         id="path300" /></g><g
       style="fill:#220055"
       id="g302"
       transform="translate(265.27981,320.67228)"><path
         d="M 0,0 C 1.554,0 1.556,2.414 0,2.414 -1.553,2.414 -1.556,0 0,0"
         style="fill:#220055;fill-opacity:1;fill-rule:nonzero;stroke:none"
         id="path304" /></g><g
       style="fill:#220055"
       id="g306"
       transform="translate(274.02981,324.96918)"><path
         d="M 0,0 C 1.493,0 1.496,2.32 0,2.32 -1.493,2.32 -1.495,0 0,0"
         style="fill:#220055;fill-opacity:1;fill-rule:nonzero;stroke:none"
         id="path308" /></g><g
       style="fill:#220055"
       id="g310"
       transform="translate(279.02981,327.75038)"><path
         d="M 0,0 C 1.131,0 1.133,1.758 0,1.758 -1.131,1.758 -1.133,0 0,0"
         style="fill:#220055;fill-opacity:1;fill-rule:nonzero;stroke:none"
         id="path312" /></g><g
       id="g314"
       transform="translate(101.50491,215.02478)"><path
         d="m 0,0 c -0.255,-0.546 -0.334,-0.963 -0.183,-1.547 0.372,-1.439 2.543,-1.44 2.916,0 C 2.886,-0.954 2.802,-0.538 2.55,0 2.098,0.966 0.453,0.966 0,0"
         style="fill:#fffcf0;fill-opacity:1;fill-rule:nonzero;stroke:none"
         id="path316" /></g><g
       id="g318"
       transform="translate(113.27981,226.01608)"><path
         d="M 0,0 C 2.398,0 2.402,3.727 0,3.727 -2.397,3.727 -2.402,0 0,0"
         style="fill:#fffcf0;fill-opacity:1;fill-rule:nonzero;stroke:none"
         id="path320" /></g><g
       id="g322"
       transform="translate(117.89451,210.40178)"><path
         d="m 0,0 c -0.371,-0.233 -0.796,-0.446 -1.072,-0.791 -0.403,-0.504 -0.587,-1.069 -0.322,-1.698 0.231,-0.546 0.804,-0.983 1.421,-0.956 0.475,0.02 0.849,0.165 1.282,0.34 0.939,0.376 1.532,1.272 1.101,2.293 C 2.029,0.091 0.872,0.548 0,0"
         style="fill:#fffcf0;fill-opacity:1;fill-rule:nonzero;stroke:none"
         id="path324" /></g><g
       id="g326"
       transform="translate(392.27981,273.59808)"><path
         d="M 0,0 C 2.292,0 2.296,3.563 0,3.563 -2.292,3.563 -2.296,0 0,0"
         style="fill:#fffcf0;fill-opacity:1;fill-rule:nonzero;stroke:none"
         id="path328" /></g><g
       id="g330"
       transform="translate(401.32171,282.21818)"><path
         d="m 0,0 c 0.671,-0.193 1.529,-0.61 2.129,-0.01 0.6,0.6 0.183,1.461 -0.01,2.129 C 1.762,3.36 0.165,3.805 -0.76,2.879 -1.686,1.954 -1.241,0.358 0,0"
         style="fill:#fffcf0;fill-opacity:1;fill-rule:nonzero;stroke:none"
         id="path332" /></g><g
       id="g334"
       transform="translate(409.65281,264.45208)"><path
         d="m 0,0 c -0.506,-0.295 -0.773,-0.533 -0.979,-1.108 -0.316,-0.888 0.682,-1.887 1.571,-1.57 0.561,0.2 0.817,0.48 1.108,0.978 C 2.325,-0.625 1.075,0.626 0,0"
         style="fill:#fffcf0;fill-opacity:1;fill-rule:nonzero;stroke:none"
         id="path336" /></g><g
       id="g338"
       transform="translate(396.91841,255.97258)"><path
         d="m 0,0 c -0.359,0.245 -0.694,0.397 -1.139,0.403 -0.533,0.007 -1.003,-0.462 -0.996,-0.996 0.006,-0.44 0.159,-0.781 0.404,-1.139 0.454,-0.667 1.385,-0.858 1.988,-0.256 C 0.855,-1.39 0.668,-0.455 0,0"
         style="fill:#fffcf0;fill-opacity:1;fill-rule:nonzero;stroke:none"
         id="path340" /></g><g
       id="g342"
       transform="translate(377.77981,283.92618)"><path
         d="M 0,0 C 1.87,0 1.873,2.906 0,2.906 -1.87,2.906 -1.873,0 0,0"
         style="fill:#fffcf0;fill-opacity:1;fill-rule:nonzero;stroke:none"
         id="path344" /></g><g
       id="g346"
       transform="translate(302.00051,361.71628)"><path
         d="m 0,0 c -0.061,0.15 -0.121,0.3 -0.181,0.45 -0.409,1.017 -1.67,1.019 -2.079,0 L -2.441,0 c -0.313,-0.78 0.468,-1.603 1.22,-1.603 0.755,0 1.533,0.825 1.221,1.603"
         style="fill:#fffcf0;fill-opacity:1;fill-rule:nonzero;stroke:none"
         id="path348" /></g><g
       id="g350"
       transform="translate(321.34621,367.87928)"><path
         d="M 0,0 C 0.012,0.111 0.023,0.223 0.037,0.333 0.104,0.926 -0.519,1.437 -1.066,1.437 -1.61,1.437 -2.237,0.929 -2.169,0.333 -2.156,0.223 -2.145,0.111 -2.133,0 -1.986,-1.369 -0.146,-1.372 0,0"
         style="fill:#fffcf0;fill-opacity:1;fill-rule:nonzero;stroke:none"
         id="path352" /></g><g
       id="g354"
       transform="translate(366.02881,148.66448)"><path
         d="M 0,0 C -0.119,-0.076 -0.237,-0.153 -0.356,-0.229 -3.054,-1.971 1.432,-4.731 1.966,-2.015 L 2.039,-1.64 C 2.243,-0.604 1.433,0.207 0.396,0.003 0.271,-0.021 0.146,-0.046 0.021,-0.07 -2.695,-0.604 0.065,-5.09 1.807,-2.393 1.883,-2.273 1.96,-2.155 2.036,-2.036 2.837,-0.796 1.241,0.801 0,0"
         style="fill:#fffcf0;fill-opacity:1;fill-rule:nonzero;stroke:none"
         id="path356" /></g><g
       id="g358"
       transform="translate(379.61571,161.18598)"><path
         d="M 0,0 C 0.339,-0.229 0.655,-0.443 1.028,-0.612 2.126,-1.109 3.125,-0.107 2.631,0.99 2.463,1.364 2.25,1.682 2.021,2.021 1.493,2.801 0.402,3.02 -0.299,2.319 -0.996,1.621 -0.779,0.529 0,0"
         style="fill:#fffcf0;fill-opacity:1;fill-rule:nonzero;stroke:none"
         id="path360" /></g><g
       id="g362"
       transform="translate(384.77981,148.39108)"><path
         d="M 0,0 C 1.915,0 1.919,2.977 0,2.977 -1.915,2.977 -1.918,0 0,0"
         style="fill:#fffcf0;fill-opacity:1;fill-rule:nonzero;stroke:none"
         id="path364" /></g></g></svg>
